<?xml version="1.0" encoding="UTF-8"?>
<svg id="Layer_2" data-name="Layer 2" xmlns="http://www.w3.org/2000/svg" viewBox="0 0 738.11 310.09">
  <defs>
    <style>
      .cls-1 { fill: #010101; }
      .cls-2 { fill: #000101; }
      .cls-3 { fill: #000100; }
      .cls-4 { fill: #080808; }
    </style>
  </defs>
  <g id="Layer_1-2" data-name="Layer 1">
    <g>
      <path d="M216.25,46.25c.14.23.33.44.59.64-.16-.22-.37-.43-.59-.64Z"/>
      <path d="M213.2,42.29c1.85-.63,4.96-2.14,6.17-1.08,1.03.9-1.86,5.37-2.54,5.67l45.2,62.33-79.5,107.38,82.22.36,38.69-52.04,38.92,51.99,82.33-.1-79.82-107.72L425.41.14,343.12.01l-39.59,53.21L263.91.07l-103.16-.07L.12,216.76l82.24.09L213.2,42.29Z"/>
      <path d="M673.38,216.75c22.25-2.29,41.76-11.96,53.81-30.51,10.79-16.62,12.86-36.19,9.37-55.51-3.8-20.99-16.79-37.83-36.75-45.67-8.2-3.22-16.68-5.29-25.81-5.35l-56.65-.38c-6.47-.04-10.73-5.34-10.88-10.93-.17-6.19,4.65-10.01,11.18-11.16l113.57-.1V.01s-135.7.15-135.7.15c-33.04,3.11-56.78,22.63-60.52,55.91-2.33,20.72.73,42.77,14.93,59.12,10.35,11.92,25.2,20.88,41.46,21.08l62.17.75c7.22.09,12.52,4.22,12.41,11.42-.08,5.36-4.51,11.04-11.5,11.06l-114.89.37c-1.46,4.27-1.51,8-1.51,12.06l-.06,39.92c0,1.84-1.97,4.06.56,5.11l134.82-.22Z"/>
      <polygon points="515.96 .09 443.71 .04 443.71 216.93 515.99 216.83 515.96 .09"/>
      <path d="M672.83,262.41l-10.62,14.84-10.69-14.93-16.47-.21v46.62c5.61.44,10.54.24,15.75.03l.41-24.07,10.92,13.76,10.7-13.22.39,23.63,15.75-.08-.1-46.61c-5.57,0-10.75-.45-16.04.24Z"/>
      <path d="M293.97,262.24l-.54,24.4-19.27-24.46-16.02-.04-.06,46.58c5.56.41,10.47.34,15.79-.02l.38-23.17,18.93,23.33,16.4-.17-.19-46.57-15.42.11Z"/>
      <path d="M213.66,262.38l-.5,23.55-18.78-23.84-15.63.07.05,46.66h15.42s.56-22.81.56-22.81l18.56,22.68c5.25.48,10.16.39,16.03,0l-.11-46.4c-5.56-.32-10.49-.43-15.6.1Z"/>
      <path class="cls-3" d="M97.48,274.8c-.73-5.68-4.99-12.11-11.57-12.46-12.58-.67-24.72-.14-37.38-.16l-.12,46.43c5.29.5,10.15.53,15.62.09l.47-15.95c8.68-6.33,11.45,8.84,17.03,16.07,6.15.03,11.48.68,16.81-.45l-10.4-17.95c6.9-2.9,10.37-9.23,9.55-15.62ZM65.02,279.45c-1.2-.54-.76-3.72-.58-5.23,4.43.14,16.53-1.93,17.28,2.32.89,5.08-12.38,2.81-16.7,2.92Z"/>
      <path class="cls-3" d="M603.53,296.83c-.87-.93-.85-4.96.38-4.99l25.21-.44c.26-4.28.49-7.67-.14-11.54l-24.95-.35c-1.48-.02-1.58-5.36-.11-5.37l25.02-.25c.66-4.04.54-7.67.05-11.75l-41.78.09.02,46.63,41.67.03c.7-4.04.62-7.72.04-11.7l-25.41-.35Z"/>
      <path d="M114.1,262.27l-13.44,46.49c5.89.32,10.85.33,16.13-.08.75-1.74.75-2.94,1.56-4.37,35.92-1.76-.67,6.38,34.25,4.44l-13.45-46.64-25.06.17ZM121.81,291.36c1.35-5.27,2.05-10.28,4.57-16.41,3.49,5.01,3.05,10.33,5.22,16.44-3.94.57-6.18.2-9.79-.02Z"/>
      <path class="cls-2" d="M421.73,280.19c-6.41-1.59-20.24,1.62-19.26-3.67.17-.92,1.57-2.23,3.02-2.25l24.45-.35c.28-4.07.32-7.73-.11-11.75l-28.76-.14c-7.96-.04-13.85,5.23-14.53,13.13-.65,7.58,3.73,16.21,11.69,16.34l13.86.22c2.11.03,3.12.85,3.09,2.69-.02,1.43-1.11,2.53-3.12,2.55l-24.71.2-.02,11.78c10.88-.37,21.58.87,32.98-.54,7.22-.89,10.92-8.41,10.93-13.94,0-6.37-2.76-12.6-9.51-14.28Z"/>
      <path class="cls-2" d="M524.94,280.1c-7.23-1.54-19.77,1.9-18.67-3.7.21-1.09,1.57-2.15,3.19-2.18l23.45-.34c.63-4.05.56-7.73.04-11.79h-31.59c-7.54,2.05-11.24,7.36-11.18,14.87.05,6.79,3.73,14.23,11.1,14.45l14.8.45c1.65.05,3.06,1.2,2.94,2.56-.1,1.06-1.59,2.44-3.08,2.45l-24.64.22-.02,11.76,33.1-.14c6.93-2.28,10.53-8.12,10.61-14.41.07-6.27-3.34-12.78-10.05-14.21Z"/>
      <path class="cls-2" d="M736.46,286.6c-6.46-13.38-28.26-2.01-26.97-10.11.15-.92,1.52-2.26,2.98-2.29l23.54-.36c.77-3.91.71-7.71.04-11.68l-28.96-.06c-8.39-.02-13.74,6.68-13.57,14.85.14,6.76,3.57,14.22,10.72,14.43l14.84.44c1.72.05,3.05,1.23,3,2.51-.05,1.41-1.2,2.6-2.99,2.62l-24.55.26c-.12,4.22-.6,7.71.23,11.79,10.82-.62,20.93.92,31.77-.48,10.5-1.36,13.97-13.51,9.91-21.93Z"/>
      <path class="cls-3" d="M339.36,291.44c2.75.58,4.99-.42,7.75.83-3.24,4.28-8.24,4.85-12.61,2.61-3.49-1.79-5.63-6.13-5.22-11,.42-4.86,4.43-8.04,8.6-8.77,4.64-.82,9.06,1.52,11.15,6.03,5.2,0,9.76.29,14.81-.28-.88-12.2-11.8-19.7-23.81-19.76-13.74-.07-24.86,10.2-25.4,23.55-.54,13.34,9.6,24.47,23.35,25.39,14.04.94,25.72-8.78,26-23.11l-24.57.1c-.76,1.58-.33,3.38-.06,4.42Z"/>
      <path class="cls-2" d="M471.08,262.73l-9.68,14.43-9.39-15.07-18.55.32,20.22,29.91c1.6,5.03-.49,11.11.55,16.53,5.08.11,10.49.3,15.45-.17,1.47-5.56-1.3-12.13.81-17.28l18.72-29.02c-6.86.03-13.39-1.35-18.13.35Z"/>
      <path class="cls-2" d="M538.36,262.07c-.47,4.08-.46,7.78-.05,11.79l14,.54v34.39c5.36.12,10.18.49,15.86-.14l.03-34.59,13.97-.2c.59-4.02.68-7.79-.11-11.73l-43.7-.05Z"/>
      <path class="cls-1" d="M43.25,262.09l-42.88-.02c-.5,4.02-.46,7.67-.1,11.69,4.97.73,9.43-.48,14.01.74l.05,34.22c5.39.27,10.31.44,15.8.03l.08-34.56,13.6-.4c-.23-4.12.48-7.88-.56-11.7Z"/>
      <path class="cls-1" d="M156.42,262.3l-.12,46.47c5.37.25,10.24.42,15.92-.13l-.08-46.44c-5.51-.2-10.37-.28-15.72.1Z"/>
      <path class="cls-1" d="M235.9,262.17v46.6c5.77.28,10.58.47,15.83-.23l-.14-46.18c-5.29-.52-10.09-.3-15.69-.19Z"/>
      <path class="cls-4" d="M217.09,43.12c-1.77.87-3.07.6-3.89-.83.01,1.95,1.85,2.88,3.05,3.95-.53-.84-.25-1.88.85-3.12Z"/>
      <path class="cls-4" d="M219.37,41.21c-1.22-1.06-4.33.45-6.17,1.08.83,1.43,2.12,1.7,3.89.83-1.1,1.25-1.38,2.29-.85,3.12.23.2.43.41.59.64.67-.3,3.57-4.77,2.54-5.67Z"/>
    </g>
  </g>
</svg>
